<?xml version="1.0" encoding="utf-8"?>
<!-- Generator: Adobe Illustrator 25.4.1, SVG Export Plug-In . SVG Version: 6.00 Build 0)  -->
<svg version="1.1" id="Layer_1" xmlns="http://www.w3.org/2000/svg" xmlns:xlink="http://www.w3.org/1999/xlink" x="0px" y="0px"
	 viewBox="0 0 228.7 39.1" style="enable-background:new 0 0 228.7 39.1;" xml:space="preserve">
<style type="text/css">
	.st0{fill:#FED136;}
	.st1{fill:#908AFF;}
	.st2{fill:#FFFFFF;}
</style>
<path class="st0" d="M99.1,15.1c-0.5-0.2-0.9-0.6-1.2-1c-0.6,1.2-1.1,2.4-1.5,3.5s-0.9,2.2-1.3,3.2s-0.7,1.9-0.9,2.6
	c-0.2,0.5-0.3,1.1-0.4,1.6c0.4,0.2,0.8,0.3,1.2,0.4c0.6,0.1,1.1,0.2,1.7,0.2c1.6,0,3.1-0.2,4.6-0.7c1.4-0.4,2.7-1.1,3.9-1.9
	c1-0.7,1.9-1.6,2.7-2.6c0.6-0.9,1-2,1-3.1c0.1-1.4-0.7-2.8-2-3.4c-2,0.8-4.1,1.2-6.2,1.1h-0.8C99.6,15.1,99.3,15.1,99.1,15.1z
	 M106,2.8c-0.5,0-1,0-1.6,0.1s-1.1,0.1-1.8,0.3c0.1,0.1,0.2,0.2,0.2,0.3s0.1,0.2,0.2,0.3c-0.3,0.4-0.5,0.8-0.8,1.2
	c-0.3,0.5-0.7,1.2-1,1.9s-0.8,1.5-1.2,2.4s-0.8,1.8-1.2,2.7c0.5-0.1,1-0.2,1.5-0.2c0.6-0.1,1.1-0.1,1.7-0.1c0.3,0,0.6,0,0.9,0
	s0.6,0.1,0.9,0.1c1-0.2,2.1-0.4,3.1-0.8c0.8-0.3,1.6-0.8,2.3-1.3c0.6-0.4,1.1-1,1.5-1.6c0.3-0.6,0.5-1.2,0.5-1.9
	c0.1-1-0.5-2-1.3-2.6C108.7,3,107.4,2.7,106,2.8z"/>
<path class="st1" d="M4.9,11.1c-1.3,6-2.6,11.3-2.9,11.8s-0.8,0.9-1.2,0.9C0.1,23.7,0,23.9,0,26v2.2h4.2h4.2V26v-2.2h-1
	c-1.1,0-1.2-0.4-0.7-2.6L7,19.8h2.2h2.2l0.3,1.4c0.5,2.3,0.4,2.6-0.8,2.6H9.8V26v2.2h5.6H21V26v-2.2h-1c-1.3,0-1.3,0-3.9-13L14,0.2
	h-3.4H7.3L4.9,11.1z M9.7,11.3c0.2,1.1,0.4,2.4,0.5,2.8c0.1,0.7,0,0.8-1,0.8c-0.7,0-1.2-0.1-1.2-0.3c0-1,1-5.9,1.1-5.6
	C9.3,9.2,9.5,10.2,9.7,11.3z"/>
<path class="st1" d="M22.2,3.3c-0.1,0.3-0.1,1.2,0,2C22.3,6.7,22.3,6.8,23,7c0.4,0.1,0.8,0.2,0.9,0.4c0.2,0.3,0.3,13.7,0.1,15.3
	c-0.1,1.2-0.2,1.3-1,1.3h-0.9v2v2h6.4H35v-5.4v-5.4h-1.2h-1.2l-0.2,1.9c-0.3,3.8-0.9,4.9-2.8,4.9h-0.9v-8.4V7.3L29.6,7l0.9-0.3v-2
	v-2h-4.1C23.1,2.8,22.3,2.9,22.2,3.3z"/>
<path class="st1" d="M35.9,3.3c-0.2,1.1,0,3.7,0.3,3.7c0.2,0,0.5,0.1,0.8,0.1l0.5,0.1v8.5v8.5h-0.9h-0.9v2v2h7.1h7.1v-5.5v-5.5
	l-1.2,0.1l-1.2,0.1l-0.1,1.8C47,23.5,46.6,24,43.9,24h-1.8l0.1-3.6c0.1-3.5,0.1-3.5,0.6-3.4c0.8,0.2,1,0.8,1.1,2.4
	C44,20.9,44,20.9,45,21l1,0.1V15V9.2l-1,0.1c-1,0.1-1,0.2-1.1,1.3c-0.1,1.5-0.6,2.6-1.3,2.6c-0.5,0-0.5-0.1-0.5-3
	c0-1.7,0.1-3.1,0.2-3.3c0.1-0.2,1-0.1,2,0c2,0.3,2.6,1,3,4l0.3,1.9l1.2-0.1l1.2-0.1V7.8V2.9l-7-0.1C37.1,2.7,36,2.8,35.9,3.3z"/>
<path class="st1" d="M51.4,3.4c-0.1,0.3-0.1,1.2,0,2.1c0.1,1.4,0.1,1.6,0.7,1.7c0.5,0.1,1,1.1,2.5,4.5c1,2.4,1.9,4.5,1.9,4.6
	c0,0.4-3.1,7.1-3.5,7.4c-0.2,0.2-0.7,0.4-1,0.4c-0.7,0-0.7,0-0.7,2v2h3.5h3.5v-2c0-2,0-2-0.7-2c-0.3,0-0.7-0.1-0.7-0.3
	c0-0.4,1.7-3.9,1.8-3.7c1.4,3.2,1.5,4,0.8,4c-0.4,0-0.4,0.3-0.4,2v2H63h3.9v-2c0-1.9,0-2-0.6-2c-0.7,0-0.9-0.3-3-5.6l-1.6-4.2
	l1.5-3.3c1-2.1,1.8-3.5,2.1-3.6c1.1-0.4,1.1-0.5,1.1-2.6v-2l-3.2,0.1L59.9,3v2c0,1.9,0,2,0.6,2.2l0.6,0.2l-0.8,1.7l-0.8,1.7
	l-0.6-1.5c-0.7-1.8-0.8-2.1-0.2-2.1c0.4,0,0.4-0.3,0.4-2.2V2.8h-3.8C52.3,2.8,51.5,2.9,51.4,3.4z"/>
<path class="st1" d="M76.2,0.4c-0.3,0.1-0.6,2.7-0.6,5.6v5.3h4.3h4.2l0.5-1.9c0.6-2.2,3.1-3.8,6.5-4l2.4-0.1l0.2,7.8
	c0.2,4.3,0,8.5-0.2,9.2c-0.5,1.4-0.6,1.5-4,1.5h-3.6V26v2.2h16.6h16.6V26v-2.2h-4c-3.8,0-3.9,0-4.4-1.5c-0.2-0.8-0.4-4.9-0.2-9.2
	l0.2-7.8l2.4,0.1c3.4,0.2,5.9,1.8,6.5,4l0.5,1.9h4.3h4.3l-0.2-5.5l-0.2-5.4l-25.8-0.1C88.3,0.2,76.5,0.3,76.2,0.4z"/>
<path class="st1" d="M129.3,0.8c-0.2,0.4-0.3,1.4-0.2,2.3c0.2,1.6,0.5,1.7,3,1.9c1.5,0.1,3,0.3,3.2,0.4c0.6,0.4,1.1,15.2,0.5,16.9
	c-0.4,1.4-0.7,1.5-3.6,1.5H129V26v2.2h24.1h24.1v-6v-6h-4.3h-4.4l-0.6,2.1c-1,4.2-3.5,5.5-10.5,5.5h-3.5v-9.3V5.2l3.2-0.3l3.2-0.3
	V2.4V0.2H145C132.7,0.2,129.6,0.3,129.3,0.8z"/>
<path class="st1" d="M191.7,11c-3,5.9-6.1,11.2-6.7,11.7c-0.7,0.5-1.9,0.9-2.8,0.9c-1.5,0-1.6,0.2-1.6,2.2V28h9.6h9.6v-2.2v-2.2
	h-2.3c-2.5,0-2.8-0.4-1.6-2.6l0.7-1.4h5.1h5.1l0.7,1.4c1.2,2.3,1,2.6-1.9,2.6H203v2.2V28h12.9h12.9v-2.2v-2.2h-2.3
	c-3,0-3,0-8.9-12.9l-4.8-10.4h-7.7h-7.7L191.7,11z M202.9,11.2c0.5,1.1,1,2.3,1.1,2.7c0.3,0.7-0.1,0.8-2.3,0.8
	c-1.5,0-2.7-0.1-2.7-0.3c0-1,2.3-5.8,2.6-5.6C201.9,9.1,202.4,10.1,202.9,11.2z"/>
<path class="st2" d="M3.9,29c-1.2,0.1-2.1,0.5-2.9,1.1c-1.4,1.1-1.3,3.1,0.3,4.1c0.3,0.2,1.6,0.6,3.1,1c2.6,0.6,3.4,1,3.2,1.5
	c-0.2,0.5-0.7,0.6-1.7,0.6c-1.5,0-2.6-0.6-3.4-1.8C2.2,35,2.1,35,1.2,35h-1l0.1,1.9l0.1,1.9l0.9,0c0.6,0,0.9,0,1.1-0.2
	c0.2-0.2,0.4-0.2,1.6,0.1c2.6,0.6,5.6,0.3,6.9-0.7c0.7-0.5,1.1-1.4,1.1-2.2c0-1.8-1.6-2.7-5.6-3.4c-1.8-0.3-2.4-0.7-2.1-1.1
	c0.3-0.5,1-0.7,2-0.6c1.2,0.1,1.9,0.5,2.4,1.3c0.4,0.6,0.4,0.6,1.5,0.6h1.1v-1.7v-1.7h-0.9c-0.5,0-1,0.1-1.2,0.2
	c-0.2,0.1-0.4,0.1-1,0C7.1,28.9,5.2,28.8,3.9,29z"/>
<path class="st2" d="M23,29.1c-0.1,0.1-0.1,0.5,0,0.8c0.1,0.6,0.1,0.6,0.7,0.7l0.6,0V34v3.3h-0.7h-0.7v0.8v0.8h3.3h3.3v-0.8v-0.8
	h-0.7c-0.8,0-0.9-0.2-0.8-1.7l0.1-1l1.9-0.1c2.3-0.1,3.3-0.5,3.9-1.4c0.4-0.7,0.4-2,0-2.7c-0.7-1.3-1.9-1.6-7.1-1.6
	C23.8,28.9,23.1,28.9,23,29.1z M30.1,31c0.3,0.3,0.3,1.5,0,1.8c-0.1,0.1-0.7,0.3-1.2,0.3L28,33.2v-1.3v-1.3l0.9,0.1
	C29.4,30.7,29.9,30.9,30.1,31z"/>
<path class="st2" d="M156.1,29c-1.2,0.1-2.1,0.5-2.9,1.1c-1.4,1.1-1.3,3.1,0.3,4.1c0.3,0.2,1.6,0.6,3.1,1c2.6,0.6,3.4,1,3.2,1.5
	c-0.2,0.5-0.7,0.6-1.7,0.6c-1.5,0-2.6-0.6-3.4-1.8c-0.3-0.5-0.4-0.5-1.3-0.5h-1l0.1,1.9l0.1,1.9l0.9,0c0.6,0,0.9,0,1.1-0.2
	c0.2-0.2,0.4-0.2,1.6,0.1c2.6,0.6,5.6,0.3,6.9-0.7c0.7-0.5,1.1-1.4,1.1-2.2c0-1.8-1.6-2.7-5.6-3.4c-1.8-0.3-2.4-0.7-2.1-1.1
	c0.3-0.5,1-0.7,2-0.6c1.2,0.1,1.9,0.5,2.4,1.3c0.4,0.6,0.4,0.6,1.5,0.6h1.1v-1.7v-1.7h-0.9c-0.5,0-1,0.1-1.2,0.2
	c-0.2,0.1-0.4,0.1-1,0C159.3,29,157.4,28.9,156.1,29z"/>
<path class="st2" d="M218.8,37.4h-0.7h-0.7v0.8V39h3.3h3.3v-0.8v-0.8h-0.7c-0.8,0-0.9-0.2-0.8-1.7l0.1-1l1.9-0.1
	c2.3-0.1,3.3-0.5,3.9-1.4c0.4-0.7,0.4-2,0-2.7c-0.7-1.3-1.9-1.6-7.1-1.6c-3,0-3.7,0-3.7,0.2c-0.1,0.1-0.1,0.5,0,0.8
	c0.1,0.6,0.1,0.6,0.7,0.7l0.6,0 M224.6,31.1c0.3,0.3,0.3,1.5,0,1.8c-0.1,0.1-0.7,0.3-1.2,0.3l-0.9,0.1V32v-1.3l0.9,0.1
	C224,30.8,224.5,30.9,224.6,31.1z"/>
<path class="st2" d="M93.2,29c-1.2,0.1-2.1,0.5-2.9,1.1c-1.4,1.1-1.3,3.1,0.3,4.1c0.3,0.2,1.6,0.6,3.1,1c2.6,0.6,3.4,1,3.2,1.5
	c-0.2,0.5-0.7,0.6-1.7,0.6c-1.5,0-2.6-0.6-3.4-1.8c-0.3-0.5-0.4-0.5-1.3-0.5h-1l0.1,1.9l0.1,1.9l0.9,0c0.6,0,0.9,0,1.1-0.2
	c0.2-0.2,0.4-0.2,1.6,0.1c2.6,0.6,5.6,0.3,6.9-0.7c0.7-0.5,1.1-1.4,1.1-2.2c0-1.8-1.6-2.7-5.6-3.4c-1.8-0.3-2.4-0.7-2.1-1.1
	c0.3-0.5,1-0.7,2-0.6c1.2,0.1,1.9,0.5,2.4,1.3c0.4,0.6,0.4,0.6,1.5,0.6h1.1v-1.7v-1.7h-0.9c-0.5,0-1,0.1-1.2,0.2
	c-0.2,0.1-0.4,0.1-1,0C96.4,29,94.5,28.9,93.2,29z"/>
<path class="st2" d="M48.7,29.1c-2.1,0.2-3.8,1.2-4.7,2.8c-0.3,0.6-0.4,1-0.4,2.3c0,1.5,0.1,1.7,0.5,2.4c1.2,1.9,3.3,2.8,6.4,2.6
	c2.8-0.1,4.4-0.9,5.4-2.7c0.5-0.9,0.6-1.2,0.6-2.3c0-1.6-0.4-2.6-1.3-3.5c-0.8-0.8-2.3-1.4-3.5-1.6c-0.5,0-1.1-0.1-1.3-0.1
	C50,29,49.3,29,48.7,29.1z M51.1,31.1c0.6,0.4,0.8,1.3,0.8,3c0,2.6-0.5,3.5-2,3.5c-0.8,0-1.5-0.6-1.7-1.5c-0.3-1.1-0.2-3.4,0.2-4.2
	C48.9,30.6,50.1,30.3,51.1,31.1z"/>
<path class="st2" d="M66.7,29.8v0.9l0.6,0l0.6,0v3.3v3.3l-0.6,0l-0.6,0v0.9v0.9l2.3,0l2.3,0v-0.8c0-0.8,0-0.8-0.6-0.9l-0.6-0.1
	l0-2.4c0-2.1,0-2.3,0.2-2c0.1,0.2,1,1.7,1.8,3.3l1.6,2.9h1.8h1.8l0.1-4.1l0.1-4.1l0.5,0c0.5,0,0.5-0.1,0.5-0.9V29h-2.3h-2.3v0.9v0.9
	h0.6c0.3,0,0.6,0.1,0.7,0.2c0,0.1,0,1.1,0,2.2l0,2l-1.7-3L71.9,29h-2.6h-2.6V29.8z"/>
<path class="st2" d="M113.7,28.8c-2,0.2-3.6,1.2-4.4,2.8c-0.3,0.6-0.4,1-0.4,2.3c0,1.5,0.1,1.7,0.5,2.4c1.1,1.9,3.1,2.8,6,2.7
	c2.6-0.1,4.1-0.9,5.1-2.7c0.5-0.9,0.5-1.2,0.5-2.3c0-1.6-0.4-2.6-1.3-3.6c-0.8-0.8-2.1-1.5-3.3-1.6c-0.4,0-1-0.1-1.2-0.1
	C114.9,28.7,114.3,28.8,113.7,28.8z M116,30.9c0.5,0.4,0.7,1.3,0.7,3c0,2.6-0.5,3.5-1.8,3.5c-0.8,0-1.4-0.6-1.6-1.5
	c-0.3-1.1-0.2-3.5,0.2-4.3C113.9,30.4,115,30.1,116,30.9z"/>
<path class="st2" d="M129.7,29.6l0,0.8l0.6,0l0.6,0l0,3.3l0,3.3l-0.6,0l-0.6,0V38v0.8h3.1h3.1V38v-0.8l-0.7,0l-0.7,0l0-1.3l0-1.3
	h0.8c0.5,0,0.9,0.1,1,0.2c0.1,0.1,0.2,0.8,0.3,1.6c0.1,1.6,0.5,2.3,1.3,2.6c0.8,0.3,1.9,0.2,2.7-0.1c0.5-0.2,0.7-0.4,0.9-1
	c0.2-0.4,0.3-1,0.2-1.3c0-0.6-0.1-0.6-0.6-0.6c-0.5,0-0.6,0-0.6,0.6c-0.1,1-0.4,0.7-0.5-0.7c-0.1-1.4-0.3-1.8-0.8-2.1
	c-0.3-0.2-0.3-0.2,0.1-0.5c0.6-0.4,1-1.1,1-1.9c0-1-0.5-1.7-1.4-2.1c-0.7-0.3-1-0.4-5-0.4l-4.2-0.1L129.7,29.6z M136.4,30.8
	c0.3,0.3,0.4,1.2,0.2,1.5c-0.2,0.3-0.9,0.5-1.6,0.5h-0.5v-1.2v-1.2h0.8C135.9,30.5,136.2,30.6,136.4,30.8z"/>
<path class="st2" d="M173.7,29.5c0,0.4,0,0.8,0,0.8c0,0.1,0.2,0.1,0.6,0.2c1.3,0.1,1.2,0,1.2,3.3c0,1.7-0.1,3.2-0.1,3.4
	c-0.1,0.2-0.4,0.3-0.9,0.3h-0.7v0.8v0.8h3.8h3.8v-0.8c0-0.7-0.1-0.8-0.5-0.9c-0.5,0-0.5-0.1-0.6-1.4l-0.1-1.4h1.7h1.7l-0.1,1.4
	c-0.1,1.3-0.1,1.4-0.5,1.4c-0.4,0-0.5,0.1-0.5,0.9v0.8h3.8h3.8v-0.8v-0.8l-0.8,0l-0.8,0V34v-3.4l0.8-0.1c0.8-0.1,0.8-0.2,0.8-1v-0.8
	h-3.8h-3.8v0.9c0,0.9,0,0.9,0.5,0.9s0.5,0,0.5,1.2v1.2h-1.6h-1.6v-1.1c0-1.1,0-1.2,0.5-1.2c0.4,0,0.5-0.2,0.5-0.9l0.1-0.9h-3.8h-3.8
	V29.5z"/>
<path class="st2" d="M200,29.6c0,0.8,0,0.8,0.8,1l0.8,0.1v3.4v3.4l-0.8,0l-0.8,0v0.8v0.8h4.1h4.1v-0.8v-0.8l-0.8,0l-0.8,0l-0.1-3.4
	l0-3.4l0.9-0.1l0.9-0.1v-0.8v-0.8h-4.1H200V29.6z"/>
</svg>
